%
M48
M72
T01C0.0236
T02C0.0276
T03C0.0315
T04C0.0320
T05C0.0400
T06C0.0748
%
T01
X4316Y3871
X5816Y4871
X6816Y4871
X6816Y3371
X8316Y4371
X10816Y9371
X10816Y10371
X10816Y11371
X3816Y7871
X3316Y6371
T02
X13816Y9371
X14816Y9371
X8066Y17371
X8066Y18371
T03
X2736Y17891
X3066Y17271
X3426Y17891
X3736Y17271
X2366Y17271
X7816Y8871
X7816Y7871
X7816Y6871
T04
X9316Y3371
X9316Y4371
X9316Y5371
X9316Y6371
X9316Y7371
X9316Y8371
X9316Y9371
X9316Y10371
X9316Y11371
X9316Y12371
X9316Y13371
X9316Y14371
X9316Y15371
X9316Y16371
X9816Y17621
X9816Y18621
X10066Y19621
X10066Y20621
X8566Y20371
X7566Y20371
X11816Y20621
X11816Y17621
X12316Y16371
X12316Y15371
X12316Y14371
X12316Y13371
X12316Y12371
X12316Y11371
X12316Y10371
X12316Y9371
X12316Y8371
X12316Y7371
X12316Y6371
X12316Y5371
X12316Y4371
X12316Y3371
X16316Y5371
X17816Y4371
X16816Y3371
X16816Y2371
X17816Y7371
X16316Y8371
X16316Y10371
X16316Y11371
X16316Y15371
X13816Y15371
X13816Y16371
X16316Y18371
X19816Y18371
X19816Y15371
T05
X1316Y15371
X1316Y14371
X1316Y13371
X1316Y12371
X1316Y10371
X1316Y9371
X1316Y8371
X1316Y7371
X1316Y5371
X1316Y4371
X1316Y3371
X1316Y2371
X3316Y2371
X4316Y2371
X5316Y2371
X6316Y2371
X7316Y2371
X19816Y2371
X19816Y3371
X19816Y4371
X19816Y5371
X19816Y7371
X19816Y8371
X19816Y9371
X19816Y10371
X19816Y19871
X17816Y19871
X16316Y19871
X14316Y19871
X6316Y19871
X6316Y18871
X6316Y17871
T06
X1629Y19371
X4503Y19371
M30
